# xmcd
#
# Track frame offsets:
#	150
#	16094
#	37987
#	71881
#	102258
#	129063
#	159040
#	193487
#	229560
#	257953
#
# Disc length: 4016 seconds
#
# Revision: 0
# Processed by: cddbd v1.4PL0 Copyright (c) Steve Scherf et al.
# Submitted via: audiograbber 1.80
#
DISCID=790fae0a
DTITLE=Big Boys - Nicehill Fall 02
DYEAR=1900
DGENRE=
TTITLE0=Diedel di Didel Die Di
TTITLE1=Boogie Will
TTITLE2=Angel
TTITLE3=Creepin' And Slipin'
TTITLE4=Hard Workin' Man
TTITLE5=I Want You Love MeTrack  6
TTITLE6=The Bottle
TTITLE7=Gypsy Train
TTITLE8=Surfin' Bird
TTITLE9=Smoke On The Water
EXTD=Live in Schönberg, Dezember 2002
EXTT0=
EXTT1=
EXTT2=
EXTT3=
EXTT4=
EXTT5=
EXTT6=
EXTT7=
EXTT8=
EXTT9=
PLAYORDER=
